<mxfile host="Electron" agent="Mozilla/5.0 (Windows NT 10.0; Win64; x64) AppleWebKit/537.36 (KHTML, like Gecko) draw.io/24.6.4 Chrome/124.0.6367.207 Electron/30.0.6 Safari/537.36" modified="2024-11-20T17:10:38.640Z" version="24.6.4" etag="1Z7gY3oAI0xbqnppmbJq" type="device">
  <diagram name="Page-1" id="VmHKmfUE9KVC_jt5b50s">
    <mxGraphModel dx="956" dy="557" grid="1" gridSize="10" guides="1" tooltips="1" connect="1" arrows="1" fold="1" page="1" pageScale="1" pageWidth="827" pageHeight="1169" math="0" shadow="0">
      <root>
        <mxCell id="0" />
        <mxCell id="1" parent="0" />
        <mxCell id="46WT86W8ZebrYgX9wmy_-6" style="edgeStyle=orthogonalEdgeStyle;rounded=0;orthogonalLoop=1;jettySize=auto;html=1;exitX=0.5;exitY=1;exitDx=0;exitDy=0;" parent="1" source="46WT86W8ZebrYgX9wmy_-1" target="46WT86W8ZebrYgX9wmy_-2" edge="1">
          <mxGeometry relative="1" as="geometry" />
        </mxCell>
        <mxCell id="46WT86W8ZebrYgX9wmy_-1" value="START" style="ellipse;whiteSpace=wrap;html=1;fillColor=#60a917;fontColor=#ffffff;strokeColor=#2D7600;" parent="1" vertex="1">
          <mxGeometry x="283" width="130" height="70" as="geometry" />
        </mxCell>
        <mxCell id="46WT86W8ZebrYgX9wmy_-2" value="MENU" style="shape=process;whiteSpace=wrap;html=1;backgroundOutline=1;fillColor=#1ba1e2;strokeColor=#006EAF;fontColor=#ffffff;" parent="1" vertex="1">
          <mxGeometry x="288" y="120" width="120" height="60" as="geometry" />
        </mxCell>
        <mxCell id="46WT86W8ZebrYgX9wmy_-5" value="" style="edgeStyle=orthogonalEdgeStyle;rounded=0;orthogonalLoop=1;jettySize=auto;html=1;" parent="1" source="46WT86W8ZebrYgX9wmy_-3" target="46WT86W8ZebrYgX9wmy_-4" edge="1">
          <mxGeometry relative="1" as="geometry" />
        </mxCell>
        <mxCell id="46WT86W8ZebrYgX9wmy_-3" value="MENU" style="shape=process;whiteSpace=wrap;html=1;backgroundOutline=1;fillColor=#1ba1e2;strokeColor=#006EAF;fontColor=#ffffff;" parent="1" vertex="1">
          <mxGeometry x="271" y="310" width="120" height="60" as="geometry" />
        </mxCell>
        <mxCell id="46WT86W8ZebrYgX9wmy_-8" style="edgeStyle=orthogonalEdgeStyle;rounded=0;orthogonalLoop=1;jettySize=auto;html=1;exitX=1;exitY=0.5;exitDx=0;exitDy=0;" parent="1" source="46WT86W8ZebrYgX9wmy_-4" target="46WT86W8ZebrYgX9wmy_-7" edge="1">
          <mxGeometry relative="1" as="geometry" />
        </mxCell>
        <mxCell id="46WT86W8ZebrYgX9wmy_-17" style="edgeStyle=orthogonalEdgeStyle;rounded=0;orthogonalLoop=1;jettySize=auto;html=1;exitX=0.5;exitY=1;exitDx=0;exitDy=0;" parent="1" source="46WT86W8ZebrYgX9wmy_-4" target="46WT86W8ZebrYgX9wmy_-16" edge="1">
          <mxGeometry relative="1" as="geometry" />
        </mxCell>
        <mxCell id="46WT86W8ZebrYgX9wmy_-4" value="1 - BEGIN GAME&lt;div&gt;2 - CREDITS&lt;/div&gt;&lt;div&gt;3 - QUIT&lt;/div&gt;" style="rhombus;whiteSpace=wrap;html=1;fillColor=#76608a;fontColor=#ffffff;strokeColor=#432D57;" parent="1" vertex="1">
          <mxGeometry x="261" y="430" width="140" height="120" as="geometry" />
        </mxCell>
        <mxCell id="46WT86W8ZebrYgX9wmy_-7" value="STOP" style="ellipse;whiteSpace=wrap;html=1;fillColor=#e51400;fontColor=#ffffff;strokeColor=#B20000;" parent="1" vertex="1">
          <mxGeometry x="477" y="450" width="120" height="80" as="geometry" />
        </mxCell>
        <mxCell id="46WT86W8ZebrYgX9wmy_-9" value="3 - QUIT" style="text;html=1;align=center;verticalAlign=middle;resizable=0;points=[];autosize=1;strokeColor=none;fillColor=none;" parent="1" vertex="1">
          <mxGeometry x="378" y="440" width="70" height="30" as="geometry" />
        </mxCell>
        <mxCell id="46WT86W8ZebrYgX9wmy_-16" value="BEGIN GAME" style="shape=process;whiteSpace=wrap;html=1;backgroundOutline=1;fillColor=#1ba1e2;strokeColor=#006EAF;fontColor=#ffffff;" parent="1" vertex="1">
          <mxGeometry x="271" y="620" width="120" height="60" as="geometry" />
        </mxCell>
        <mxCell id="46WT86W8ZebrYgX9wmy_-37" style="edgeStyle=orthogonalEdgeStyle;rounded=0;orthogonalLoop=1;jettySize=auto;html=1;exitX=0.5;exitY=1;exitDx=0;exitDy=0;fontFamily=Helvetica;fontSize=12;fontColor=default;" parent="1" source="46WT86W8ZebrYgX9wmy_-18" target="46WT86W8ZebrYgX9wmy_-36" edge="1">
          <mxGeometry relative="1" as="geometry" />
        </mxCell>
        <mxCell id="46WT86W8ZebrYgX9wmy_-18" value="BEGIN GAME" style="shape=process;whiteSpace=wrap;html=1;backgroundOutline=1;fillColor=#1ba1e2;fontColor=#ffffff;strokeColor=#006EAF;" parent="1" vertex="1">
          <mxGeometry x="1181" y="20" width="120" height="60" as="geometry" />
        </mxCell>
        <mxCell id="46WT86W8ZebrYgX9wmy_-25" value="2 - CREDITS" style="text;html=1;align=center;verticalAlign=middle;resizable=0;points=[];autosize=1;strokeColor=none;fillColor=none;fontFamily=Helvetica;fontSize=12;fontColor=default;" parent="1" vertex="1">
          <mxGeometry x="193" y="440" width="90" height="30" as="geometry" />
        </mxCell>
        <mxCell id="46WT86W8ZebrYgX9wmy_-26" value="1 - BEGIN GAME" style="text;html=1;align=center;verticalAlign=middle;resizable=0;points=[];autosize=1;strokeColor=none;fillColor=none;fontFamily=Helvetica;fontSize=12;fontColor=default;" parent="1" vertex="1">
          <mxGeometry x="327" y="550" width="120" height="30" as="geometry" />
        </mxCell>
        <mxCell id="46WT86W8ZebrYgX9wmy_-28" value="CREDITS PAGE" style="shape=process;whiteSpace=wrap;html=1;backgroundOutline=1;strokeColor=#006EAF;align=center;verticalAlign=middle;fontFamily=Helvetica;fontSize=12;fontColor=#ffffff;fillColor=#1ba1e2;" parent="1" vertex="1">
          <mxGeometry x="60" y="460" width="120" height="60" as="geometry" />
        </mxCell>
        <mxCell id="46WT86W8ZebrYgX9wmy_-35" style="edgeStyle=orthogonalEdgeStyle;rounded=0;orthogonalLoop=1;jettySize=auto;html=1;exitX=1;exitY=0.5;exitDx=0;exitDy=0;fontFamily=Helvetica;fontSize=12;fontColor=default;" parent="1" source="46WT86W8ZebrYgX9wmy_-32" target="46WT86W8ZebrYgX9wmy_-34" edge="1">
          <mxGeometry relative="1" as="geometry" />
        </mxCell>
        <mxCell id="46WT86W8ZebrYgX9wmy_-32" value="CREDITS PAGE" style="shape=process;whiteSpace=wrap;html=1;backgroundOutline=1;strokeColor=#006EAF;align=center;verticalAlign=middle;fontFamily=Helvetica;fontSize=12;fontColor=#ffffff;fillColor=#1ba1e2;" parent="1" vertex="1">
          <mxGeometry x="109" y="750" width="120" height="60" as="geometry" />
        </mxCell>
        <mxCell id="46WT86W8ZebrYgX9wmy_-34" value="OUTPUT:&lt;br&gt;Credits Page" style="shape=parallelogram;perimeter=parallelogramPerimeter;whiteSpace=wrap;html=1;fixedSize=1;strokeColor=#BD7000;align=center;verticalAlign=middle;fontFamily=Helvetica;fontSize=12;fontColor=#000000;fillColor=#f0a30a;" parent="1" vertex="1">
          <mxGeometry x="327" y="750" width="120" height="60" as="geometry" />
        </mxCell>
        <mxCell id="46WT86W8ZebrYgX9wmy_-39" style="edgeStyle=orthogonalEdgeStyle;rounded=0;orthogonalLoop=1;jettySize=auto;html=1;exitX=0.5;exitY=1;exitDx=0;exitDy=0;fontFamily=Helvetica;fontSize=12;fontColor=default;" parent="1" source="46WT86W8ZebrYgX9wmy_-36" target="46WT86W8ZebrYgX9wmy_-38" edge="1">
          <mxGeometry relative="1" as="geometry" />
        </mxCell>
        <mxCell id="46WT86W8ZebrYgX9wmy_-36" value="OUTPUT:&lt;br&gt;Background and Game Context with a brief backstory for Riko." style="shape=parallelogram;perimeter=parallelogramPerimeter;whiteSpace=wrap;html=1;fixedSize=1;strokeColor=#BD7000;align=center;verticalAlign=middle;fontFamily=Helvetica;fontSize=12;fontColor=#000000;fillColor=#f0a30a;" parent="1" vertex="1">
          <mxGeometry x="1126" y="130" width="229" height="80" as="geometry" />
        </mxCell>
        <mxCell id="46WT86W8ZebrYgX9wmy_-43" value="" style="edgeStyle=orthogonalEdgeStyle;rounded=0;orthogonalLoop=1;jettySize=auto;html=1;fontFamily=Helvetica;fontSize=12;fontColor=default;" parent="1" source="46WT86W8ZebrYgX9wmy_-38" target="46WT86W8ZebrYgX9wmy_-42" edge="1">
          <mxGeometry relative="1" as="geometry" />
        </mxCell>
        <mxCell id="46WT86W8ZebrYgX9wmy_-38" value="INPUT BUTTON:&lt;br&gt;&quot;Click to Continue&quot;" style="shape=parallelogram;perimeter=parallelogramPerimeter;whiteSpace=wrap;html=1;fixedSize=1;strokeColor=#BD7000;align=center;verticalAlign=middle;fontFamily=Helvetica;fontSize=12;fontColor=#000000;fillColor=#f0a30a;" parent="1" vertex="1">
          <mxGeometry x="1154" y="260" width="173.5" height="70" as="geometry" />
        </mxCell>
        <mxCell id="46WT86W8ZebrYgX9wmy_-45" value="" style="edgeStyle=orthogonalEdgeStyle;rounded=0;orthogonalLoop=1;jettySize=auto;html=1;fontFamily=Helvetica;fontSize=12;fontColor=default;" parent="1" source="46WT86W8ZebrYgX9wmy_-42" target="46WT86W8ZebrYgX9wmy_-44" edge="1">
          <mxGeometry relative="1" as="geometry" />
        </mxCell>
        <mxCell id="46WT86W8ZebrYgX9wmy_-42" value="OUTPUT:&lt;br&gt;&quot;Black Market(image)&quot;" style="shape=parallelogram;perimeter=parallelogramPerimeter;whiteSpace=wrap;html=1;fixedSize=1;fillColor=#f0a30a;strokeColor=#BD7000;fontColor=#000000;" parent="1" vertex="1">
          <mxGeometry x="1181" y="370" width="120" height="60" as="geometry" />
        </mxCell>
        <mxCell id="46WT86W8ZebrYgX9wmy_-47" value="" style="edgeStyle=orthogonalEdgeStyle;rounded=0;orthogonalLoop=1;jettySize=auto;html=1;fontFamily=Helvetica;fontSize=12;fontColor=default;" parent="1" source="46WT86W8ZebrYgX9wmy_-44" target="46WT86W8ZebrYgX9wmy_-46" edge="1">
          <mxGeometry relative="1" as="geometry" />
        </mxCell>
        <mxCell id="46WT86W8ZebrYgX9wmy_-44" value="INPUT:&lt;br&gt;&quot;Select Your gear set for the Heist&quot;&lt;div&gt;2 Buttons&lt;/div&gt;" style="shape=parallelogram;perimeter=parallelogramPerimeter;whiteSpace=wrap;html=1;fixedSize=1;fillColor=#f0a30a;strokeColor=#BD7000;fontColor=#000000;" parent="1" vertex="1">
          <mxGeometry x="1174" y="470" width="134" height="70" as="geometry" />
        </mxCell>
        <mxCell id="46WT86W8ZebrYgX9wmy_-49" style="edgeStyle=orthogonalEdgeStyle;rounded=0;orthogonalLoop=1;jettySize=auto;html=1;exitX=1;exitY=0.5;exitDx=0;exitDy=0;fontFamily=Helvetica;fontSize=12;fontColor=default;" parent="1" source="46WT86W8ZebrYgX9wmy_-46" edge="1">
          <mxGeometry relative="1" as="geometry">
            <mxPoint x="1870" y="1470" as="targetPoint" />
          </mxGeometry>
        </mxCell>
        <mxCell id="46WT86W8ZebrYgX9wmy_-52" style="edgeStyle=orthogonalEdgeStyle;rounded=0;orthogonalLoop=1;jettySize=auto;html=1;exitX=0;exitY=0.5;exitDx=0;exitDy=0;fontFamily=Helvetica;fontSize=12;fontColor=default;" parent="1" source="46WT86W8ZebrYgX9wmy_-46" edge="1">
          <mxGeometry relative="1" as="geometry">
            <mxPoint x="750" y="1470" as="targetPoint" />
          </mxGeometry>
        </mxCell>
        <mxCell id="46WT86W8ZebrYgX9wmy_-46" value="SET 1 -&amp;nbsp;" style="rhombus;whiteSpace=wrap;html=1;fillColor=#76608a;strokeColor=#432D57;fontColor=#ffffff;" parent="1" vertex="1">
          <mxGeometry x="1116" y="640" width="249" height="215" as="geometry" />
        </mxCell>
      </root>
    </mxGraphModel>
  </diagram>
</mxfile>
